<svg width="133" height="36" viewBox="0 0 133 36" fill="none" xmlns="http://www.w3.org/2000/svg">
<path d="M14.072 1.016V1.976C12.984 2.008 12.152 2.136 11.576 2.36C11.032 2.552 10.664 2.936 10.472 3.512C10.28 4.056 10.184 4.92 10.184 6.104V30.104C10.184 31.192 10.264 32.008 10.424 32.552C10.616 33.096 10.968 33.464 11.48 33.656C12.024 33.816 12.792 33.896 13.784 33.896H16.904C18.28 33.896 19.432 33.704 20.36 33.32C21.32 32.936 22.12 32.36 22.76 31.592C23.4 30.824 23.896 29.832 24.248 28.616C24.6 27.4 24.872 25.976 25.064 24.344H26.168C26.072 25.368 26.024 26.712 26.024 28.376C26.024 29.016 26.04 29.96 26.072 31.208C26.136 32.424 26.232 33.688 26.36 35C24.728 34.936 22.888 34.904 20.84 34.904C18.792 34.872 16.968 34.856 15.368 34.856C14.632 34.856 13.688 34.856 12.536 34.856C11.384 34.856 10.136 34.872 8.792 34.904C7.48 34.904 6.136 34.92 4.76 34.952C3.416 34.952 2.12 34.968 0.872 35V34.04C1.96 33.976 2.776 33.848 3.32 33.656C3.864 33.464 4.216 33.08 4.376 32.504C4.568 31.928 4.664 31.064 4.664 29.912V6.104C4.664 4.92 4.568 4.056 4.376 3.512C4.216 2.936 3.848 2.552 3.272 2.36C2.728 2.136 1.928 2.008 0.872 1.976V1.016C1.608 1.048 2.552 1.08 3.704 1.112C4.888 1.144 6.152 1.16 7.496 1.16C8.712 1.16 9.912 1.144 11.096 1.112C12.312 1.08 13.304 1.048 14.072 1.016Z" fill="#25216A"/>
<path d="M45.8338 0.343997C48.9698 0.343997 51.7218 1.032 54.0898 2.408C56.4898 3.784 58.3458 5.768 59.6578 8.36C60.9698 10.92 61.6258 14.04 61.6258 17.72C61.6258 21.304 60.9538 24.44 59.6098 27.128C58.2658 29.816 56.3938 31.912 53.9938 33.416C51.5938 34.92 48.8578 35.672 45.7858 35.672C42.6178 35.672 39.8498 34.984 37.4818 33.608C35.1138 32.232 33.2738 30.248 31.9618 27.656C30.6498 25.064 29.9938 21.944 29.9938 18.296C29.9938 14.712 30.6658 11.576 32.0098 8.888C33.3858 6.2 35.2578 4.104 37.6258 2.6C39.9938 1.096 42.7298 0.343997 45.8338 0.343997ZM45.6418 1.208C43.6578 1.208 41.9298 1.928 40.4578 3.368C38.9858 4.808 37.8498 6.792 37.0498 9.32C36.2498 11.848 35.8498 14.776 35.8498 18.104C35.8498 21.496 36.2978 24.456 37.1938 26.984C38.0898 29.48 39.3058 31.416 40.8418 32.792C42.3778 34.136 44.0898 34.808 45.9778 34.808C47.9618 34.808 49.6738 34.088 51.1138 32.648C52.5858 31.208 53.7218 29.224 54.5218 26.696C55.3538 24.136 55.7698 21.208 55.7698 17.912C55.7698 14.488 55.3058 11.528 54.3778 9.032C53.4818 6.536 52.2658 4.616 50.7298 3.272C49.2258 1.896 47.5298 1.208 45.6418 1.208ZM82.4968 0.343997C84.6088 0.343997 86.3208 0.663998 87.6328 1.304C88.9448 1.912 90.1448 2.632 91.2328 3.464C91.6488 3.784 91.9688 3.944 92.1927 3.944C92.8008 3.944 93.2008 2.968 93.3928 1.016H94.4968C94.4328 2.232 94.3848 3.704 94.3528 5.432C94.3208 7.128 94.3048 9.4 94.3048 12.248H93.2008C92.9768 10.712 92.6728 9.288 92.2888 7.976C91.9368 6.664 91.3128 5.544 90.4167 4.616C89.5528 3.592 88.4168 2.792 87.0088 2.216C85.6328 1.64 84.2248 1.352 82.7848 1.352C81.1208 1.352 79.6488 1.768 78.3688 2.6C77.0888 3.4 76.0008 4.552 75.1048 6.056C74.2408 7.56 73.5688 9.336 73.0888 11.384C72.6408 13.4 72.4168 15.624 72.4168 18.056C72.4168 23.816 73.2968 28.04 75.0568 30.728C76.8488 33.384 79.5368 34.712 83.1208 34.712C84.1448 34.712 85.0248 34.568 85.7608 34.28C86.5288 33.992 87.1368 33.704 87.5848 33.416C88.1288 33.032 88.4808 32.664 88.6407 32.312C88.8008 31.928 88.8808 31.432 88.8808 30.824V26.168C88.8808 24.792 88.7528 23.784 88.4968 23.144C88.2728 22.472 87.8088 22.024 87.1048 21.8C86.4008 21.544 85.3768 21.4 84.0328 21.368V20.408C84.6408 20.44 85.3608 20.472 86.1928 20.504C87.0248 20.504 87.8888 20.52 88.7848 20.552C89.7128 20.552 90.5448 20.552 91.2808 20.552C92.4328 20.552 93.4728 20.536 94.4008 20.504C95.3608 20.472 96.1448 20.44 96.7528 20.408V21.368C96.0808 21.4 95.5688 21.512 95.2168 21.704C94.8968 21.896 94.6728 22.28 94.5448 22.856C94.4488 23.432 94.4008 24.312 94.4008 25.496V35H93.4408C93.4088 34.456 93.2808 33.864 93.0568 33.224C92.8648 32.584 92.5608 32.264 92.1448 32.264C91.9208 32.264 91.6808 32.312 91.4248 32.408C91.2008 32.504 90.8008 32.744 90.2248 33.128C89.1048 33.896 87.9368 34.52 86.7208 35C85.5048 35.448 84.1288 35.672 82.5928 35.672C79.1688 35.672 76.2408 35 73.8088 33.656C71.3768 32.28 69.5208 30.312 68.2408 27.752C66.9928 25.16 66.3688 22.088 66.3688 18.536C66.3688 14.824 67.0568 11.608 68.4328 8.888C69.8408 6.168 71.7448 4.072 74.1448 2.6C76.5768 1.096 79.3608 0.343997 82.4968 0.343997ZM116.474 0.343997C119.61 0.343997 122.362 1.032 124.73 2.408C127.13 3.784 128.986 5.768 130.298 8.36C131.61 10.92 132.266 14.04 132.266 17.72C132.266 21.304 131.594 24.44 130.25 27.128C128.906 29.816 127.034 31.912 124.634 33.416C122.234 34.92 119.498 35.672 116.426 35.672C113.258 35.672 110.49 34.984 108.122 33.608C105.754 32.232 103.914 30.248 102.602 27.656C101.29 25.064 100.634 21.944 100.634 18.296C100.634 14.712 101.306 11.576 102.65 8.888C104.026 6.2 105.898 4.104 108.266 2.6C110.634 1.096 113.37 0.343997 116.474 0.343997ZM116.282 1.208C114.298 1.208 112.57 1.928 111.098 3.368C109.626 4.808 108.49 6.792 107.69 9.32C106.89 11.848 106.49 14.776 106.49 18.104C106.49 21.496 106.938 24.456 107.834 26.984C108.73 29.48 109.946 31.416 111.482 32.792C113.018 34.136 114.73 34.808 116.618 34.808C118.602 34.808 120.314 34.088 121.754 32.648C123.226 31.208 124.362 29.224 125.162 26.696C125.994 24.136 126.41 21.208 126.41 17.912C126.41 14.488 125.946 11.528 125.018 9.032C124.122 6.536 122.906 4.616 121.37 3.272C119.866 1.896 118.17 1.208 116.282 1.208Z" fill="white"/>
</svg>
